<svg width="31" height="30" viewBox="0 0 31 30" fill="none" xmlns="http://www.w3.org/2000/svg">
<path d="M15.9504 0L18.1191 0.320449C29.0301 2.63129 33.8211 15.8825 26.5546 24.582C18.4418 34.2971 2.91581 30.235 0.322887 18.0602L0.0114651 15.9389C0.0385452 15.3184 -0.0246419 14.682 0.0114651 14.0636C0.447005 6.6369 6.65062 0.43554 14.0751 0H15.9504ZM6.85372 8.21883C6.0165 8.4084 5.42525 9.07863 5.34626 9.93391V20.0709C5.42299 20.9555 6.11128 21.7251 7.01395 21.8018C12.4751 21.7476 17.9611 21.9011 23.4087 21.7251C24.1512 21.4633 24.6251 20.7976 24.6883 20.0145C24.4942 16.7581 24.941 13.2106 24.6883 9.99033C24.6161 9.05832 23.9616 8.30233 23.0183 8.20304L6.85598 8.21883H6.85372Z" fill="white"/>
<path d="M23.1019 10.5476V20.0708C23.1019 20.0866 22.9597 20.213 22.9258 20.2446H7.10424C7.06814 20.213 6.92822 20.0866 6.92822 20.0708V10.5476L14.7905 16.7196C14.9846 16.7941 15.1809 16.7648 15.3614 16.6655L23.1019 10.5476Z" fill="white"/>
<path d="M21.576 9.72876L15.0339 14.9327L8.45117 9.72876H21.576Z" fill="white"/>
</svg>
