<svg width="16" height="15" viewBox="0 0 16 15" fill="none" xmlns="http://www.w3.org/2000/svg">
<path d="M7.97521 0L9.05954 0.160224C14.5151 1.31565 16.9105 7.94126 13.2773 12.291C9.22089 17.1485 1.45791 15.1175 0.161444 9.03011L0.00573253 7.96947C0.0192726 7.65918 -0.0123209 7.34099 0.00573253 7.03182C0.223502 3.31845 3.32531 0.21777 7.03755 0H7.97521ZM3.42686 4.10942C3.00825 4.2042 2.71262 4.53932 2.67313 4.96696V10.0355C2.71149 10.4778 3.05564 10.8625 3.50697 10.9009C6.23756 10.8738 8.98056 10.9505 11.7044 10.8625C12.0756 10.7317 12.3125 10.3988 12.3441 10.0073C12.2471 8.37906 12.4705 6.60531 12.3441 4.99517C12.308 4.52916 11.9808 4.15117 11.5092 4.10152L3.42799 4.10942H3.42686Z" fill="#46AF08"/>
<path d="M11.5509 5.27393V10.0355C11.5509 10.0434 11.4798 10.1066 11.4629 10.1224H3.55212C3.53407 10.1066 3.46411 10.0434 3.46411 10.0355V5.27393L7.39525 8.35994C7.49229 8.39717 7.59045 8.3825 7.68072 8.33286L11.5509 5.27393Z" fill="#46AF08"/>
<path d="M10.7881 4.86426L7.51708 7.46621L4.22571 4.86426H10.7881Z" fill="#46AF08"/>
</svg>
