<svg width="20" height="20" viewBox="0 0 20 20" fill="none" xmlns="http://www.w3.org/2000/svg">
<path d="M11.9352 19.9996V12.8103H13.9141L14.318 9.98319H11.3694V7.82216C11.3694 7.687 11.5973 7.21473 11.6924 7.09534C11.917 6.81328 12.4483 6.5903 12.8032 6.5903H14.7623V4.12656C14.4871 4.08973 14.2099 4.03591 13.9339 4.00596C12.5709 3.85623 11.0959 3.81495 9.9425 4.65872C8.2153 5.92216 8.57506 8.09937 8.54228 9.98319H6.28049V12.8103H8.54228V19.9996C4.01141 19.3493 0.560645 15.7172 0.0608562 11.1742C-0.529177 5.80925 3.23441 0.815413 8.60865 0.093451C15.2006 -0.792409 20.7448 4.74654 19.9269 11.3312C19.3976 15.5938 16.1496 19.1538 11.9348 20L11.9352 19.9996Z" fill="#46AF08"/>
</svg>
