<svg width="17" height="17" viewBox="0 0 17 17" fill="none" xmlns="http://www.w3.org/2000/svg">
<path d="M10.1449 16.9997V10.8888H11.827L12.1703 8.48571H9.66401V6.64884C9.66401 6.53395 9.85768 6.13252 9.93851 6.03104C10.1294 5.79129 10.5811 5.60175 10.8827 5.60175H12.548V3.50758C12.3141 3.47627 12.0784 3.43052 11.8438 3.40507C10.6853 3.27779 9.43148 3.24271 8.45113 3.95992C6.983 5.03383 7.2888 6.88447 7.26094 8.48571H5.33842V10.8888H7.26094V16.9997C3.4097 16.4469 0.476548 13.3596 0.0517278 9.49805C-0.449801 4.93786 2.74925 0.693101 7.31736 0.0794334C12.9205 -0.673547 17.6331 4.03456 16.9379 9.63152C16.488 13.2547 13.7272 16.2807 10.1446 17L10.1449 16.9997Z" fill="white"/>
</svg>
