<svg width="13" height="20" viewBox="0 0 13 20" fill="none" xmlns="http://www.w3.org/2000/svg">
<path d="M6.19041 17.3878L6.10851 17.3632L0.827003 9.23994C-1.20639 5.74532 0.685055 1.21769 4.58684 0.208147C9.83932 -1.1509 14.1224 4.41212 11.5292 9.13497L6.19002 17.3882L6.19041 17.3878ZM5.66636 2.99383C4.33594 3.14413 3.14867 4.39184 2.98127 5.70595C2.63853 8.40058 5.52799 10.3191 7.85443 8.87255C10.7081 7.09879 9.21069 2.59343 5.66596 2.99383H5.66636Z" fill="#46AF08"/>
<path d="M4.28618 16.3559C3.40149 16.5007 2.44046 16.7337 1.74742 17.3285C2.14185 17.6227 2.68738 17.7265 3.16809 17.812C4.38161 18.0275 5.81024 18.0279 7.04642 17.985C7.93946 17.9539 9.57126 17.8665 10.3577 17.4867C10.4027 17.4649 10.58 17.3889 10.5566 17.3289C10.5299 17.2609 10.1327 17.02 10.0416 16.9702C9.44164 16.6434 8.71997 16.4669 8.05675 16.3158L8.50089 15.5699L8.55258 15.5575C9.7486 15.6784 12.1645 15.9985 11.9422 17.6816C11.8265 18.5583 10.4428 19.1941 9.70407 19.4518C7.87306 20.0903 5.94145 20.1229 4.04125 19.7957C2.84006 19.5889 0.202691 18.8971 0.358555 17.2887C0.484599 15.9905 2.7331 15.6442 3.74742 15.5293L4.28658 16.3555L4.28618 16.3559Z" fill="#46AF08"/>
</svg>
