<svg width="19" height="30" viewBox="0 0 19 30" fill="none" xmlns="http://www.w3.org/2000/svg">
<path d="M9.28562 26.0818L9.16276 26.0448L1.2405 13.8599C-1.80959 8.61797 1.02758 1.82653 6.88026 0.312221C14.759 -1.72634 21.1836 6.61818 17.2938 13.7025L9.28502 26.0824L9.28562 26.0818ZM8.49954 4.49074C6.50392 4.71619 4.723 6.58776 4.47191 8.55893C3.9578 12.6009 8.29198 15.4786 11.7816 13.3088C16.0622 10.6482 13.816 3.89015 8.49894 4.49074H8.49954Z" fill="white"/>
<path d="M6.4292 24.5339C5.10217 24.751 3.66062 25.1005 2.62106 25.9927C3.2127 26.4341 4.03099 26.5898 4.75207 26.718C6.57234 27.0413 8.71528 27.0419 10.5696 26.9774C11.9091 26.9309 14.3568 26.7997 15.5365 26.2301C15.6039 26.1973 15.8699 26.0834 15.8348 25.9933C15.7948 25.8914 15.199 25.5299 15.0624 25.4554C14.1624 24.9651 13.0799 24.7003 12.0851 24.4737L12.7513 23.3548L12.8288 23.3363C14.6228 23.5176 18.2467 23.9977 17.9133 26.5224C17.7397 27.8375 15.6642 28.7912 14.556 29.1776C11.8095 30.1355 8.9121 30.1844 6.06181 29.6935C4.26002 29.3834 0.303962 28.3456 0.537759 25.9331C0.726824 23.9858 4.09958 23.4663 5.62105 23.2939L6.4298 24.5333L6.4292 24.5339Z" fill="white"/>
</svg>
