<svg width="31" height="30" viewBox="0 0 31 30" fill="none" xmlns="http://www.w3.org/2000/svg">
<path d="M14.1851 0.0187336C26.113 -0.556975 34.026 12.2512 27.9449 22.6212C22.5406 31.8372 9.40401 32.5589 2.99272 24.0037C-4.17034 14.4446 2.30037 0.592253 14.1851 0.0187336ZM11.1293 11.4763C11.2174 11.2812 11.386 11.1329 11.4986 10.955C11.8082 10.4662 11.8738 9.93994 11.7062 9.38424C11.4395 8.49863 10.926 7.34253 10.5592 6.46942C10.4482 6.20487 10.3959 5.96157 10.1523 5.7827C9.71203 5.45935 9.3227 5.64323 8.84831 5.75893L11.1293 11.4763ZM8.19192 5.91498C7.33602 6.1861 6.44103 6.56981 5.72742 7.12144C4.89778 7.76281 5.0385 8.24283 5.23395 9.17066C6.57519 15.5391 10.9166 21.6005 16.3625 25.1007C17.6147 25.9053 17.9099 26.1536 19.232 25.2192C19.8274 24.7983 20.3544 24.2726 20.8144 23.7097L15.7205 19.3039L14.4168 19.6263C14.3806 19.6379 14.3518 19.6329 14.3177 19.6172C14.2974 19.6078 14.0359 19.3646 13.9878 19.3205C12.4014 17.8726 10.9942 15.91 10.1029 13.9568C10.0363 13.811 9.84462 13.4261 9.82273 13.2969C9.81148 13.23 9.82461 13.2091 9.85307 13.1534C10.0082 12.8491 10.4466 12.4764 10.5945 12.1749C10.6076 12.148 10.6299 12.1258 10.6227 12.092L8.19192 5.91498ZM16.497 6.67113C16.0351 6.7074 15.7881 7.20837 16.0101 7.61146C16.1271 7.82379 16.73 8.19749 16.9561 8.38418C19.0678 10.1279 20.5645 12.3663 21.3863 14.9834C21.4786 15.2774 21.6124 16.0454 21.8 16.2258C22.1487 16.5611 22.8001 16.3659 22.848 15.8684C22.8905 15.4287 22.4483 14.2088 22.2763 13.7497C21.3213 11.203 19.328 8.40419 17.0446 6.8894C16.876 6.77776 16.7156 6.65393 16.497 6.67113ZM14.9331 9.57813C14.6235 9.63097 14.4153 9.93869 14.4412 10.2423C14.4734 10.6207 15.1583 11.0407 15.4419 11.3043C16.6412 12.4201 17.5878 13.8673 18.1519 15.4056C18.251 15.6764 18.3761 16.269 18.5356 16.4594C18.8771 16.8672 19.5845 16.6464 19.6289 16.1164C19.6523 15.8384 19.358 15.0735 19.2458 14.7808C18.5528 12.9777 17.2776 11.157 15.769 9.94619C15.5098 9.73824 15.2965 9.51621 14.9331 9.57813ZM21.2519 23.1306C21.5633 22.6693 21.8982 22.2956 21.5474 21.7277C20.6752 20.9419 19.8027 20.0997 18.879 19.3655C18.0975 18.7444 17.4621 18.716 16.5358 19.0847L21.2519 23.1306Z" fill="white"/>
</svg>
