<svg width="16" height="15" viewBox="0 0 16 15" fill="none" xmlns="http://www.w3.org/2000/svg">
<path d="M7.09256 0.00936679C13.0565 -0.278488 17.013 6.12561 13.9724 11.3106C11.2703 15.9186 4.702 16.2795 1.49636 12.0018C-2.08517 7.2223 1.15018 0.296127 7.09256 0.00936679ZM5.56463 5.73815C5.60872 5.64059 5.693 5.56647 5.74929 5.47751C5.90408 5.23312 5.93692 4.96997 5.85311 4.69212C5.71974 4.24932 5.463 3.67126 5.27959 3.23471C5.22408 3.10243 5.19797 2.98079 5.07617 2.89135C4.85602 2.72968 4.66135 2.82162 4.42416 2.87947L5.56447 5.73815H5.56463ZM4.09596 2.95749C3.66801 3.09305 3.22052 3.2849 2.86371 3.56072C2.44889 3.88141 2.51925 4.12142 2.61698 4.58533C3.28759 7.76955 5.45831 10.8002 8.18128 12.5503C8.80733 12.9527 8.95493 13.0768 9.61601 12.6096C9.91372 12.3991 10.1772 12.1363 10.4072 11.8549L7.86027 9.65194L7.20842 9.81315C7.19028 9.81893 7.1759 9.81643 7.15885 9.80861C7.14869 9.80392 7.01797 9.68228 6.99389 9.66023C6.20069 8.93629 5.49708 7.95499 5.05146 6.97838C5.01816 6.90552 4.92231 6.71304 4.91137 6.64847C4.90574 6.61501 4.91231 6.60453 4.92653 6.5767C5.00409 6.42456 5.2233 6.23819 5.29726 6.08746C5.30383 6.07401 5.31493 6.06291 5.31133 6.04602L4.09612 2.9578L4.09596 2.95749ZM8.24851 3.33556C8.01757 3.3537 7.89405 3.60419 8.00506 3.80573C8.06354 3.9119 8.365 4.09874 8.47804 4.19209C9.53393 5.06394 10.2823 6.18315 10.6932 7.49171C10.7393 7.63868 10.8062 8.0227 10.9 8.11292C11.0744 8.28053 11.4001 8.18296 11.424 7.9342C11.4452 7.71436 11.2242 7.10441 11.1382 6.87487C10.6606 5.6015 9.66401 4.2021 8.52229 3.4447C8.43801 3.38888 8.3578 3.32712 8.24851 3.33572V3.33556ZM7.46656 4.78906C7.31177 4.81549 7.20764 4.96934 7.22061 5.12117C7.23672 5.31036 7.57914 5.52035 7.72096 5.65216C8.32059 6.21004 8.79389 6.93367 9.07595 7.70279C9.12552 7.83819 9.18806 8.13449 9.2678 8.22971C9.43855 8.4336 9.79223 8.32322 9.81443 8.05819C9.82616 7.91919 9.67903 7.53674 9.62289 7.39039C9.2764 6.48883 8.63878 5.57851 7.88451 4.9731C7.75489 4.86912 7.64841 4.7581 7.46672 4.78906H7.46656ZM10.6259 11.5653C10.7817 11.3347 10.9491 11.1478 10.7737 10.8639C10.3376 10.4709 9.90137 10.0499 9.43949 9.68275C9.04875 9.37222 8.73103 9.35799 8.2679 9.54234L10.6261 11.5651L10.6259 11.5653Z" fill="#46AF08"/>
</svg>
