<svg width="20" height="20" viewBox="0 0 20 20" fill="none" xmlns="http://www.w3.org/2000/svg">
<path d="M7.23976 0.0112762C8.63407 -0.0709512 10.1636 0.301049 11.3776 0.979424C15.4431 3.25016 16.5607 8.71275 13.6412 12.3691L14.2963 13.0139C14.8134 12.7885 15.3901 12.8198 15.8456 13.1613C16.9794 14.4552 18.5567 15.6361 19.6375 16.9446C20.1293 17.5399 20.0811 18.3001 19.598 18.8797C18.905 19.7111 17.9819 20.4653 16.9331 19.649C15.8329 18.3673 14.2564 17.209 13.2068 15.9183C12.813 15.434 12.7601 14.8802 13.0024 14.3074L12.3576 13.6523C11.4697 14.3762 10.3482 14.9019 9.22231 15.1316C5.3256 15.9262 1.42494 13.6531 0.315269 9.83191C-1.0739 5.04928 2.28873 0.303816 7.23976 0.0112762ZM7.23976 1.47081C2.28635 1.80526 -0.314877 7.57896 2.79079 11.4998C5.68574 15.1545 11.4721 14.3777 13.3187 10.1142C15.151 5.88381 11.8267 1.16127 7.24016 1.47081H7.23976Z" fill="black"/>
<path d="M3.73646 5.68116C3.52733 8.94535 6.50451 11.7624 9.75289 11.362L9.77305 11.4406C8.61673 12.1854 7.21056 12.4084 5.89651 11.9447C3.37988 11.0572 2.2872 8.07366 3.63842 5.75865C3.66846 5.70725 3.6317 5.65942 3.73646 5.68116Z" fill="black"/>
</svg>
