<svg width="16" height="16" viewBox="0 0 16 16" fill="none" xmlns="http://www.w3.org/2000/svg">
<path d="M16 0.583219C15.9854 0.630631 15.9615 0.728305 15.9266 0.821702C14.1383 5.59563 12.3489 10.3696 10.5599 15.1435C10.5079 15.2822 10.4559 15.4212 10.4039 15.5599C10.3127 15.803 10.1705 15.9919 9.88484 15.9998C9.61089 16.0072 9.45664 15.8436 9.34478 15.6116C8.47094 13.7953 7.58178 11.9862 6.72646 10.161C6.52839 9.73825 6.26014 9.47338 5.83729 9.27518C4.01871 8.42213 2.2151 7.53736 0.409696 6.65615C0.278601 6.59199 0.13967 6.48754 0.0702039 6.36455C-0.101858 6.06119 0.0527484 5.74821 0.420383 5.60811C1.07372 5.35893 1.72883 5.11546 2.38359 4.86985C6.63277 3.27533 10.8819 1.68045 15.1318 0.0877171C15.2415 0.0467223 15.358 0.00501457 15.4727 0.000380377C15.7673 -0.0110269 16.0032 0.235655 16 0.583219ZM14.0742 2.7399C14.0638 2.73384 14.0535 2.72778 14.0432 2.72172C14.009 2.75131 13.973 2.77911 13.9413 2.8112C11.8213 4.93294 9.70244 7.05505 7.58071 9.17466C7.49877 9.25665 7.49379 9.31832 7.54259 9.41884C8.26824 10.9182 8.98926 12.42 9.71206 13.9208C9.73629 13.971 9.7655 14.0185 9.81288 14.1047C11.2428 10.2904 12.6588 6.51534 14.0742 2.7399ZM1.90838 6.1856C1.96359 6.22268 1.98176 6.23836 2.00242 6.24834C3.53958 6.98946 5.07744 7.7295 6.61317 8.47382C6.71114 8.52124 6.76065 8.48844 6.82513 8.42392C8.94865 6.29753 11.0736 4.17294 13.1978 2.04727C13.2267 2.01839 13.2488 1.98275 13.2741 1.95031C13.2669 1.94246 13.2598 1.93462 13.2527 1.92642C9.483 3.34163 5.71297 4.7572 1.90838 6.1856Z" fill="white"/>
</svg>
