<svg width="21" height="20" viewBox="0 0 21 20" fill="none" xmlns="http://www.w3.org/2000/svg">
<path d="M9.53016 0.0122736C17.2423 -0.360937 22.4988 7.85 18.8549 14.702C15.3547 21.2837 6.10706 21.8511 1.81867 15.7412C-2.70654 9.29493 1.71731 0.390399 9.53016 0.0122736ZM9.2537 5.65835C8.21639 5.67463 7.08017 5.68937 6.05054 5.77077C3.95964 5.93634 3.94828 6.98256 3.85643 8.76352C3.78978 10.0573 3.71237 11.5901 3.99374 12.8615C4.25975 14.0634 5.13794 14.245 6.23638 14.3331C8.581 14.5211 11.4423 14.5159 13.7881 14.3331C15.5501 14.1958 15.9865 13.7615 16.1675 12.0164C16.2983 10.7537 16.2713 9.0452 16.1368 7.78243C15.9088 5.64299 14.5754 5.81992 12.8368 5.74129C11.6426 5.68722 10.4553 5.63961 9.2534 5.65866L9.2537 5.65835Z" fill="#46AF08"/>
<path d="M8.76855 11.8783V8.19629L11.9302 10.0525L8.76855 11.8783Z" fill="#46AF08"/>
</svg>
