<svg width="18" height="17" viewBox="0 0 18 17" fill="none" xmlns="http://www.w3.org/2000/svg">
<path d="M8.45061 0.0104326C15.0059 -0.306796 19.474 6.6725 16.3766 12.4967C13.4015 18.0912 5.54098 18.5734 1.89585 13.38C-1.95059 7.90069 1.80969 0.331839 8.45061 0.0104326ZM8.21562 4.8096C7.33391 4.82344 6.36812 4.83597 5.49294 4.90516C3.71567 5.04589 3.70601 5.93517 3.62794 7.44899C3.57129 8.54872 3.50549 9.85158 3.74465 10.9322C3.97076 11.9539 4.71723 12.1082 5.6509 12.1831C7.64383 12.3429 10.0759 12.3385 12.0699 12.1831C13.5675 12.0664 13.9385 11.6973 14.0923 10.214C14.2035 9.14062 14.1806 7.68842 14.0662 6.61506C13.8725 4.79654 12.7391 4.94693 11.2613 4.88009C10.2461 4.83414 9.23702 4.79367 8.21536 4.80986L8.21562 4.8096Z" fill="white"/>
<path d="M7.80322 10.0965V6.9668L10.4907 8.54459L7.80322 10.0965Z" fill="white"/>
</svg>
